<?xml version="1.0" encoding="UTF-8"?>
<!DOCTYPE svg PUBLIC "-//W3C//DTD SVG 1.1//EN" "http://www.w3.org/Graphics/SVG/1.1/DTD/svg11.dtd">
<svg xmlns="http://www.w3.org/2000/svg" version="1.1" width="512px" height="512px" style="shape-rendering:geometricPrecision; text-rendering:geometricPrecision; image-rendering:optimizeQuality; fill-rule:evenodd; clip-rule:evenodd" xmlns:xlink="http://www.w3.org/1999/xlink">
<g><path style="opacity:0.922" fill="#ccc8c8" d="M 379.5,57.5 C 424.501,53.6985 466.501,63.0318 505.5,85.5C 506.833,198.5 506.833,311.5 505.5,424.5C 461.447,398.767 414.114,389.933 363.5,398C 352.431,399.614 341.431,401.614 330.5,404C 282.411,417.022 234.411,430.355 186.5,444C 146.168,454.525 105.502,456.191 64.5,449C 43.6002,444.201 23.9335,436.368 5.5,425.5C 4.16667,312.5 4.16667,199.5 5.5,86.5C 49.5531,112.233 96.8864,121.067 147.5,113C 158.569,111.386 169.569,109.386 180.5,107C 228.584,93.979 276.584,80.6457 324.5,67C 342.79,62.7303 361.123,59.5637 379.5,57.5 Z"/></g>
<g><path style="opacity:1" fill="#b02c3e" d="M 502.5,113.5 C 455.28,88.577 405.28,81.077 352.5,91C 319.856,97.9618 287.523,106.128 255.5,115.5C 255.826,107.316 255.492,99.3159 254.5,91.5C 296.604,76.6426 339.937,66.8092 384.5,62C 426.133,59.0588 465.133,67.7254 501.5,88C 502.483,96.4149 502.817,104.915 502.5,113.5 Z"/></g>
<g><path style="opacity:1" fill="#fefcfc" d="M 502.5,113.5 C 502.5,121.833 502.5,130.167 502.5,138.5C 460.433,116.432 415.766,108.266 368.5,114C 330.047,119.985 292.38,129.152 255.5,141.5C 255.5,132.833 255.5,124.167 255.5,115.5C 287.523,106.128 319.856,97.9618 352.5,91C 405.28,81.077 455.28,88.577 502.5,113.5 Z"/></g>
<g><path style="opacity:1" fill="#454278" d="M 254.5,91.5 C 255.492,99.3159 255.826,107.316 255.5,115.5C 255.5,124.167 255.5,132.833 255.5,141.5C 255.5,149.833 255.5,158.167 255.5,166.5C 255.5,174.833 255.5,183.167 255.5,191.5C 255.5,200.167 255.5,208.833 255.5,217.5C 255.5,225.833 255.5,234.167 255.5,242.5C 255.5,250.833 255.5,259.167 255.5,267.5C 217.18,280.746 177.846,290.246 137.5,296C 92.0836,301.711 49.417,293.544 9.5,271.5C 9.5,271.167 9.5,270.833 9.5,270.5C 9.16763,211.664 9.50096,152.998 10.5,94.5C 48.2693,114.887 88.6026,123.054 131.5,119C 158.268,116.313 184.602,111.313 210.5,104C 225.156,99.7249 239.823,95.5583 254.5,91.5 Z"/></g>
<g><path style="opacity:1" fill="#ebebf0" d="M 231.5,108.5 C 232.482,110.406 233.482,112.406 234.5,114.5C 236.548,113.23 238.548,112.897 240.5,113.5C 235.423,115.724 234.423,119.057 237.5,123.5C 237.167,123.833 236.833,124.167 236.5,124.5C 235.059,123.696 233.559,123.029 232,122.5C 230.022,124.478 228.022,126.478 226,128.5C 226.049,126.325 226.549,124.158 227.5,122C 226.337,120.145 224.67,118.811 222.5,118C 224.762,117.358 226.929,116.525 229,115.5C 229.744,113.1 230.577,110.767 231.5,108.5 Z"/></g>
<g><path style="opacity:1" fill="#b02c3e" d="M 502.5,138.5 C 502.826,147.349 502.493,156.016 501.5,164.5C 469.118,145.987 434.118,136.987 396.5,137.5C 374.224,138.201 352.224,141.035 330.5,146C 305.274,152.056 280.274,158.889 255.5,166.5C 255.5,158.167 255.5,149.833 255.5,141.5C 292.38,129.152 330.047,119.985 368.5,114C 415.766,108.266 460.433,116.432 502.5,138.5 Z"/></g>
<g><path style="opacity:1" fill="#ebebf0" d="M 27.5,114.5 C 28.4972,114.47 29.1639,114.97 29.5,116C 30.0779,117.811 30.5779,119.645 31,121.5C 33.2016,122.402 35.3683,123.402 37.5,124.5C 35.4904,125.065 33.8237,126.065 32.5,127.5C 33.7521,129.735 34.2521,132.069 34,134.5C 32.0581,129.717 28.5581,127.717 23.5,128.5C 25.0251,123.8 23.6917,119.966 19.5,117C 21.8463,117.079 24.013,117.912 26,119.5C 27.0086,117.975 27.5086,116.308 27.5,114.5 Z"/></g>
<g><path style="opacity:1" fill="#6d5982" d="M 10.5,94.5 C 9.50096,152.998 9.16763,211.664 9.5,270.5C 8.16853,211.665 8.16853,152.665 9.5,93.5C 10.1067,93.6236 10.44,93.9569 10.5,94.5 Z"/></g>
<g><path style="opacity:1" fill="#ececf1" d="M 190.5,120.5 C 191.947,121.622 192.947,123.122 193.5,125C 199.704,123.521 200.537,124.688 196,128.5C 195.424,130.377 195.591,132.211 196.5,134C 196.167,134.5 195.833,135 195.5,135.5C 194.167,134.833 192.833,134.167 191.5,133.5C 189.517,134.982 187.684,136.649 186,138.5C 186.083,135.881 186.25,133.214 186.5,130.5C 180.079,129.012 180.413,127.845 187.5,127C 189.022,125.084 190.022,122.917 190.5,120.5 Z"/></g>
<g><path style="opacity:1" fill="#eeeef3" d="M 68.5,127.5 C 70.4484,129.32 71.4484,131.654 71.5,134.5C 73.8568,134.337 76.1902,134.503 78.5,135C 76.3732,136.051 74.7065,137.551 73.5,139.5C 74.9072,145.301 73.4072,145.634 69,140.5C 63.2123,144.9 62.0456,143.733 65.5,137C 63.8333,135.333 62.1667,133.667 60.5,132C 62.7513,132.207 65.0846,132.373 67.5,132.5C 67.6287,130.784 67.962,129.117 68.5,127.5 Z"/></g>
<g><path style="opacity:1" fill="#eeeef3" d="M 149.5,128.5 C 151.185,129.184 152.185,130.517 152.5,132.5C 154.423,133.308 156.423,133.808 158.5,134C 154.066,136.624 153.4,139.957 156.5,144C 154.497,143.581 152.497,142.747 150.5,141.5C 148.517,142.982 146.684,144.649 145,146.5C 144.709,144.217 145.209,142.05 146.5,140C 145.142,138.311 143.475,136.978 141.5,136C 143.74,135.023 146.073,134.523 148.5,134.5C 148.833,132.5 149.167,130.5 149.5,128.5 Z"/></g>
<g><path style="opacity:1" fill="#f2f1f5" d="M 109.5,130.5 C 110.924,132.515 111.59,134.848 111.5,137.5C 113.857,137.337 116.19,137.503 118.5,138C 116.651,139.093 114.984,140.426 113.5,142C 114.842,144.015 115.342,146.182 115,148.5C 112.042,144.055 108.876,143.722 105.5,147.5C 104.554,145.925 104.554,144.258 105.5,142.5C 104.455,140.795 103.122,139.295 101.5,138C 106.887,138.388 109.554,135.888 109.5,130.5 Z"/></g>
<g><path style="opacity:1" fill="#f1f1f5" d="M 210.5,132.5 C 212.054,133.914 213.388,135.581 214.5,137.5C 220.478,135.785 220.978,136.785 216,140.5C 216.053,142.936 215.887,145.269 215.5,147.5C 214.167,146.833 212.833,146.167 211.5,145.5C 209.142,147.024 207.309,149.024 206,151.5C 205.748,149.069 206.248,146.735 207.5,144.5C 205.833,143.333 204.167,142.167 202.5,141C 208.102,140.899 210.769,138.065 210.5,132.5 Z"/></g>
<g><path style="opacity:1" fill="#fefcfc" d="M 501.5,164.5 C 501.826,172.684 501.492,180.684 500.5,188.5C 451.754,163.322 400.421,156.489 346.5,168C 315.782,174.429 285.448,182.263 255.5,191.5C 255.5,183.167 255.5,174.833 255.5,166.5C 280.274,158.889 305.274,152.056 330.5,146C 352.224,141.035 374.224,138.201 396.5,137.5C 434.118,136.987 469.118,145.987 501.5,164.5 Z"/></g>
<g><path style="opacity:1" fill="#eae9f0" d="M 48.5,139.5 C 49.8641,141.22 50.8641,143.22 51.5,145.5C 53.5,146.5 55.5,147.5 57.5,148.5C 56.6721,149.415 55.6721,150.081 54.5,150.5C 53.8316,152.926 53.4982,155.259 53.5,157.5C 51.4703,153.626 48.4703,152.626 44.5,154.5C 44.1133,152.269 43.9466,149.936 44,147.5C 37.5818,142.471 38.0818,141.471 45.5,144.5C 47.0512,143.2 48.0512,141.533 48.5,139.5 Z"/></g>
<g><path style="opacity:1" fill="#ededf2" d="M 170.5,141.5 C 171.738,143.214 172.405,145.214 172.5,147.5C 174.819,146.833 177.153,146.666 179.5,147C 177.649,148.684 175.982,150.517 174.5,152.5C 177.805,159.121 176.639,160.121 171,155.5C 169.056,156.439 167.389,157.773 166,159.5C 165.424,157.623 165.591,155.789 166.5,154C 165.048,152.435 163.381,151.102 161.5,150C 167.209,149.927 170.209,147.094 170.5,141.5 Z"/></g>
<g><path style="opacity:1" fill="#efeff3" d="M 231.5,143.5 C 232.482,145.406 233.482,147.406 234.5,149.5C 236.456,148.452 238.456,147.952 240.5,148C 238.443,149.719 236.776,151.719 235.5,154C 238.667,159.5 237.5,160.667 232,157.5C 230.056,158.439 228.389,159.773 227,161.5C 226.695,159.443 226.695,157.443 227,155.5C 225.581,154.54 224.081,153.707 222.5,153C 224.459,152.069 226.459,151.236 228.5,150.5C 229.7,148.229 230.7,145.896 231.5,143.5 Z"/></g>
<g><path style="opacity:1" fill="#f1f1f5" d="M 129.5,147.5 C 130.771,149.109 131.771,150.942 132.5,153C 138.86,152.576 139.693,154.076 135,157.5C 134.845,159.856 134.845,162.189 135,164.5C 131.265,160.294 127.932,160.627 125,165.5C 124.658,163.182 125.158,161.015 126.5,159C 125.016,157.426 123.349,156.093 121.5,155C 127.238,155.762 129.904,153.262 129.5,147.5 Z"/></g>
<g><path style="opacity:1" fill="#eaeaf0" d="M 88.5,147.5 C 90.821,149.09 91.821,151.423 91.5,154.5C 93.8568,154.337 96.1902,154.503 98.5,155C 96.6191,156.102 94.9525,157.435 93.5,159C 94.451,161.158 94.951,163.325 95,165.5C 91.6232,160.803 87.9566,160.47 84,164.5C 83.9519,162.456 84.4519,160.456 85.5,158.5C 84.018,156.517 82.3513,154.684 80.5,153C 82.8473,152.666 85.1806,152.833 87.5,153.5C 87.8333,151.5 88.1667,149.5 88.5,147.5 Z"/></g>
<g><path style="opacity:1" fill="#eeedf2" d="M 27.5,149.5 C 29.5558,151.24 30.8891,153.573 31.5,156.5C 33.5101,157.502 35.5101,158.502 37.5,159.5C 35.7256,160.187 34.0589,161.02 32.5,162C 33.5674,164.098 34.0674,166.265 34,168.5C 31.9782,166.478 29.9782,164.478 28,162.5C 26.5603,163.148 25.0603,163.481 23.5,163.5C 25.1969,158.707 23.8635,154.874 19.5,152C 21.8463,152.079 24.013,152.912 26,154.5C 27.0086,152.975 27.5086,151.308 27.5,149.5 Z"/></g>
<g><path style="opacity:1" fill="#ebeaf0" d="M 190.5,154.5 C 191.771,156.109 192.771,157.942 193.5,160C 199.748,158.463 200.581,159.629 196,163.5C 196.053,165.936 195.887,168.269 195.5,170.5C 194.167,169.833 192.833,169.167 191.5,168.5C 189.517,169.982 187.684,171.649 186,173.5C 185.502,171.473 185.669,169.473 186.5,167.5C 185.64,165.728 184.307,164.395 182.5,163.5C 188.014,162.988 190.681,159.988 190.5,154.5 Z"/></g>
<g><path style="opacity:1" fill="#f1f1f5" d="M 68.5,161.5 C 69.8234,163.762 71.1568,166.096 72.5,168.5C 74.444,169.189 76.444,169.689 78.5,170C 73.8782,171.742 72.3782,174.908 74,179.5C 71.0682,174.627 67.7349,174.294 64,178.5C 63.6577,176.182 64.1577,174.015 65.5,172C 63.8333,170.333 62.1667,168.667 60.5,167C 62.7972,166.982 65.1305,167.149 67.5,167.5C 67.8333,165.5 68.1667,163.5 68.5,161.5 Z"/></g>
<g><path style="opacity:1" fill="#b02c3e" d="M 500.5,188.5 C 501.771,192.748 502.437,197.248 502.5,202C 502.499,206.347 502.166,210.514 501.5,214.5C 454.967,189.378 405.633,181.878 353.5,192C 320.224,198.319 287.557,206.819 255.5,217.5C 255.5,208.833 255.5,200.167 255.5,191.5C 285.448,182.263 315.782,174.429 346.5,168C 400.421,156.489 451.754,163.322 500.5,188.5 Z"/></g>
<g><path style="opacity:1" fill="#eae9ef" d="M 149.5,163.5 C 151.084,164.973 152.584,166.64 154,168.5C 155.789,167.591 157.623,167.424 159.5,168C 158,169.5 156.5,171 155,172.5C 155.218,174.587 155.051,176.587 154.5,178.5C 153.167,177.833 151.833,177.167 150.5,176.5C 148.517,177.982 146.684,179.649 145,181.5C 144.748,179.069 145.248,176.735 146.5,174.5C 139.615,170.644 140.281,168.977 148.5,169.5C 148.517,167.435 148.85,165.435 149.5,163.5 Z"/></g>
<g><path style="opacity:1" fill="#ececf1" d="M 111.5,171.5 C 113.5,172.167 115.5,172.833 117.5,173.5C 116.038,174.458 114.705,175.624 113.5,177C 114.842,179.015 115.342,181.182 115,183.5C 112.19,178.717 109.024,178.384 105.5,182.5C 105.113,180.269 104.947,177.936 105,175.5C 99.0901,172.058 99.9234,170.558 107.5,171C 109.515,163.502 110.849,163.669 111.5,171.5 Z"/></g>
<g><path style="opacity:1" fill="#ebeaf0" d="M 211.5,166.5 C 212.738,168.214 213.405,170.214 213.5,172.5C 216.16,171.653 218.826,171.153 221.5,171C 219.478,173.022 217.478,175.022 215.5,177C 218.745,182.252 217.745,183.418 212.5,180.5C 210.517,181.982 208.684,183.649 207,185.5C 206.845,183.144 206.845,180.811 207,178.5C 205.581,177.54 204.081,176.707 202.5,176C 204.659,175.088 206.825,174.255 209,173.5C 210.136,171.257 210.97,168.924 211.5,166.5 Z"/></g>
<g><path style="opacity:1" fill="#9796b3" d="M 111.5,171.5 C 114.187,171.336 116.854,171.503 119.5,172C 118.956,172.717 118.289,173.217 117.5,173.5C 115.5,172.833 113.5,172.167 111.5,171.5 Z"/></g>
<g><path style="opacity:1" fill="#f2f2f5" d="M 48.5,175.5 C 50.309,177.099 51.6424,179.099 52.5,181.5C 54.2251,182.015 55.8917,182.682 57.5,183.5C 55.9466,184.439 54.6133,185.606 53.5,187C 55.3302,193.154 54.3302,193.821 50.5,189C 48.144,188.845 45.8107,188.845 43.5,189C 46.25,185.115 45.5833,181.782 41.5,179C 43.0349,178.504 44.5349,178.67 46,179.5C 47.5947,178.644 48.428,177.311 48.5,175.5 Z"/></g>
<g><path style="opacity:1" fill="#eeedf2" d="M 170.5,176.5 C 171.908,178.509 173.408,180.509 175,182.5C 180.586,180.972 180.919,181.972 176,185.5C 176.053,187.936 175.887,190.269 175.5,192.5C 174.167,191.833 172.833,191.167 171.5,190.5C 169.517,191.982 167.684,193.649 166,195.5C 165.748,193.069 166.248,190.735 167.5,188.5C 160.858,185.067 161.525,183.401 169.5,183.5C 169.674,181.139 170.007,178.806 170.5,176.5 Z"/></g>
<g><path style="opacity:1" fill="#ededf2" d="M 231.5,178.5 C 232.947,179.622 233.947,181.122 234.5,183C 240.704,181.521 241.537,182.688 237,186.5C 237.053,188.936 236.887,191.269 236.5,193.5C 234.568,192.48 232.568,192.313 230.5,193C 229.696,194.771 228.529,196.271 227,197.5C 227.153,194.826 227.653,192.16 228.5,189.5C 226.516,189.617 224.85,188.95 223.5,187.5C 225.632,186.402 227.798,185.402 230,184.5C 230.505,182.482 231.005,180.482 231.5,178.5 Z"/></g>
<g><path style="opacity:1" fill="#edecf2" d="M 89.5,182.5 C 90.8641,184.22 91.8641,186.22 92.5,188.5C 94.4233,189.308 96.4233,189.808 98.5,190C 97.4214,190.956 96.2547,191.789 95,192.5C 96.8818,200.298 95.2151,201.298 90,195.5C 88.7581,196.872 87.2581,197.872 85.5,198.5C 85.1133,196.269 84.9466,193.936 85,191.5C 83.5905,190.213 82.0905,189.046 80.5,188C 82.898,187.626 85.2313,187.626 87.5,188C 88.464,186.275 89.1307,184.441 89.5,182.5 Z"/></g>
<g><path style="opacity:1" fill="#f0f0f4" d="M 129.5,182.5 C 131.614,183.784 132.614,185.784 132.5,188.5C 134.527,188.338 136.527,188.505 138.5,189C 136.981,190.351 135.648,191.851 134.5,193.5C 137.854,200.143 136.688,201.143 131,196.5C 129.018,196.99 127.351,197.99 126,199.5C 125.424,197.623 125.591,195.789 126.5,194C 125.142,192.311 123.475,190.978 121.5,190C 123.81,189.503 126.143,189.337 128.5,189.5C 128.993,187.194 129.326,184.861 129.5,182.5 Z"/></g>
<g><path style="opacity:1" fill="#f0eff4" d="M 28.5,184.5 C 30.3115,186.385 31.4782,188.719 32,191.5C 33.8161,192.329 35.6494,193.163 37.5,194C 36.4366,195.188 35.1033,195.688 33.5,195.5C 35.7281,203.43 34.3947,204.263 29.5,198C 27.4132,198.218 25.4132,198.051 23.5,197.5C 24.1667,196.167 24.8333,194.833 25.5,193.5C 23.7123,191.424 22.0456,189.257 20.5,187C 22.3684,186.996 24.2017,187.496 26,188.5C 27.5947,187.644 28.428,186.311 28.5,184.5 Z"/></g>
<g><path style="opacity:1" fill="#fefcfc" d="M 501.5,214.5 C 501.5,222.833 501.5,231.167 501.5,239.5C 457.883,216.414 411.55,208.581 362.5,216C 326.165,222.167 290.498,231.001 255.5,242.5C 255.5,234.167 255.5,225.833 255.5,217.5C 287.557,206.819 320.224,198.319 353.5,192C 405.633,181.878 454.967,189.378 501.5,214.5 Z"/></g>
<g><path style="opacity:1" fill="#ebeaf0" d="M 190.5,189.5 C 192,191.232 193.667,192.899 195.5,194.5C 197.155,193.772 198.821,193.605 200.5,194C 198.649,195.684 196.982,197.517 195.5,199.5C 196.77,201.548 197.103,203.548 196.5,205.5C 194.809,203.744 192.809,203.244 190.5,204C 185.303,210.291 184.303,209.625 187.5,202C 186.048,200.435 184.381,199.102 182.5,198C 184.74,197.023 187.073,196.523 189.5,196.5C 189.993,194.194 190.326,191.861 190.5,189.5 Z"/></g>
<g><path style="opacity:1" fill="#efeff3" d="M 69.5,196.5 C 70.9238,198.515 71.5905,200.848 71.5,203.5C 79.4716,203.5 80.1383,205.167 73.5,208.5C 76.2784,215.701 74.9451,216.368 69.5,210.5C 68.1667,211.167 66.8333,211.833 65.5,212.5C 65.1133,210.269 64.9466,207.936 65,205.5C 63.8333,204.333 62.6667,203.167 61.5,202C 63.5868,202.218 65.5868,202.051 67.5,201.5C 68.1744,199.805 68.8411,198.138 69.5,196.5 Z"/></g>
<g><path style="opacity:1" fill="#efeff3" d="M 150.5,197.5 C 151.771,199.109 152.771,200.942 153.5,203C 159.704,201.521 160.537,202.688 156,206.5C 156.053,208.936 155.887,211.269 155.5,213.5C 151.698,210.572 148.532,211.239 146,215.5C 146.438,212.801 146.272,210.135 145.5,207.5C 143.998,206.917 142.665,206.084 141.5,205C 147.286,205.684 150.286,203.184 150.5,197.5 Z"/></g>
<g><path style="opacity:1" fill="#ecebf1" d="M 109.5,200.5 C 111.216,201.574 112.216,203.241 112.5,205.5C 114.766,206.314 117.1,206.814 119.5,207C 117.534,208.46 115.868,210.127 114.5,212C 114.975,213.763 115.642,215.43 116.5,217C 114.418,216.393 112.251,215.56 110,214.5C 108.374,215.289 106.874,216.289 105.5,217.5C 105.167,217.167 104.833,216.833 104.5,216.5C 105.929,214.669 106.429,212.669 106,210.5C 100.065,206.916 100.898,205.582 108.5,206.5C 108.833,204.5 109.167,202.5 109.5,200.5 Z"/></g>
<g><path style="opacity:1" fill="#efeff4" d="M 211.5,201.5 C 213.213,202.635 213.88,204.302 213.5,206.5C 215.819,205.833 218.153,205.666 220.5,206C 218.833,207.667 217.167,209.333 215.5,211C 218.767,216.23 217.767,217.396 212.5,214.5C 210.517,215.982 208.684,217.649 207,219.5C 207.155,217.189 207.155,214.856 207,212.5C 205.581,211.54 204.081,210.707 202.5,210C 208.178,209.852 211.178,207.018 211.5,201.5 Z"/></g>
<g><path style="opacity:1" fill="#ececf1" d="M 48.5,208.5 C 50.3428,210.547 51.6762,213.047 52.5,216C 54.6079,216.36 56.6079,217.027 58.5,218C 56.4453,218.687 54.7786,219.854 53.5,221.5C 56.5286,228.918 55.5286,229.418 50.5,223C 48.765,222.349 47.0983,222.515 45.5,223.5C 44.3192,221.865 44.3192,220.198 45.5,218.5C 43.8333,216.5 42.1667,214.5 40.5,212.5C 40.6667,212.167 40.8333,211.833 41,211.5C 45.3142,214.756 47.8142,213.756 48.5,208.5 Z"/></g>
<g><path style="opacity:1" fill="#ededf2" d="M 170.5,210.5 C 172.007,212.289 173.34,214.289 174.5,216.5C 181.699,214.753 182.199,215.753 176,219.5C 176.053,221.936 175.887,224.269 175.5,226.5C 174.167,225.833 172.833,225.167 171.5,224.5C 169.517,225.982 167.684,227.649 166,229.5C 165.709,227.217 166.209,225.05 167.5,223C 166.048,221.435 164.381,220.102 162.5,219C 164.74,218.023 167.073,217.523 169.5,217.5C 169.674,215.139 170.007,212.806 170.5,210.5 Z"/></g>
<g><path style="opacity:1" fill="#ebeaf0" d="M 231.5,212.5 C 233.084,213.973 234.584,215.64 236,217.5C 237.789,216.591 239.623,216.424 241.5,217C 239.649,218.684 237.982,220.517 236.5,222.5C 237.548,224.456 238.048,226.456 238,228.5C 236.087,226.813 233.92,226.313 231.5,227C 230,228.5 228.5,230 227,231.5C 227.359,228.888 227.859,226.221 228.5,223.5C 226.692,223.509 225.025,223.009 223.5,222C 225.569,220.477 227.903,219.643 230.5,219.5C 230.993,217.194 231.326,214.861 231.5,212.5 Z"/></g>
<g><path style="opacity:1" fill="#b02c3e" d="M 501.5,239.5 C 502.815,248.265 502.815,256.932 501.5,265.5C 469.426,246.923 434.759,237.923 397.5,238.5C 375.226,239.201 353.226,242.034 331.5,247C 305.976,253.119 280.643,259.952 255.5,267.5C 255.5,259.167 255.5,250.833 255.5,242.5C 290.498,231.001 326.165,222.167 362.5,216C 411.55,208.581 457.883,216.414 501.5,239.5 Z"/></g>
<g><path style="opacity:1" fill="#eeeef2" d="M 89.5,216.5 C 91.0863,218.081 92.0863,220.081 92.5,222.5C 94.7662,223.314 97.0995,223.814 99.5,224C 98.0337,224.635 96.7003,225.469 95.5,226.5C 95.0257,228.862 94.6924,231.195 94.5,233.5C 91.3802,229.587 88.2135,229.587 85,233.5C 84.6577,231.182 85.1577,229.015 86.5,227C 84.792,224.957 82.792,223.29 80.5,222C 83.1194,222.083 85.786,222.25 88.5,222.5C 88.5172,220.435 88.8505,218.435 89.5,216.5 Z"/></g>
<g><path style="opacity:1" fill="#f1f1f5" d="M 130.5,216.5 C 131.738,218.214 132.405,220.214 132.5,222.5C 134.857,222.337 137.19,222.503 139.5,223C 137.415,224.041 135.748,225.541 134.5,227.5C 137.854,234.143 136.688,235.143 131,230.5C 129.374,231.289 127.874,232.289 126.5,233.5C 126.308,231.195 125.974,228.862 125.5,226.5C 124.3,225.469 122.966,224.635 121.5,224C 123.81,223.503 126.143,223.337 128.5,223.5C 128.767,221.035 129.434,218.701 130.5,216.5 Z"/></g>
<g><path style="opacity:1" fill="#eaeaf0" d="M 28.5,218.5 C 29.4972,218.47 30.1639,218.97 30.5,220C 31.0779,221.811 31.5779,223.645 32,225.5C 34.1846,226.67 36.3512,227.836 38.5,229C 36.5789,229.36 34.9122,230.194 33.5,231.5C 36.5548,240.171 35.5548,240.671 30.5,233C 28.0641,233.053 25.7308,232.887 23.5,232.5C 24.304,231.059 24.9706,229.559 25.5,228C 24.1818,226.01 22.8485,224.01 21.5,222C 23.2555,221.86 24.9222,222.36 26.5,223.5C 27.9501,222.15 28.6168,220.484 28.5,218.5 Z"/></g>
<g><path style="opacity:1" fill="#e9e8ef" d="M 191.5,223.5 C 192.931,224.78 193.598,226.447 193.5,228.5C 201.742,225.985 202.909,227.319 197,232.5C 196.845,234.856 196.845,237.189 197,239.5C 192.997,236.499 189.664,237.165 187,241.5C 186.605,239.821 186.772,238.155 187.5,236.5C 186.293,234.551 184.627,233.051 182.5,232C 188.191,231.936 191.191,229.103 191.5,223.5 Z"/></g>
<g><path style="opacity:1" fill="#efeef3" d="M 69.5,230.5 C 71.2671,232.792 72.2671,235.458 72.5,238.5C 74.8568,238.337 77.1902,238.503 79.5,239C 77.3732,240.051 75.7065,241.551 74.5,243.5C 75.228,245.155 75.3947,246.821 75,248.5C 73.3333,247.167 71.6667,245.833 70,244.5C 64.2123,248.9 63.0456,247.733 66.5,241C 64.8333,239.333 63.1667,237.667 61.5,236C 63.7513,236.207 66.0846,236.373 68.5,236.5C 68.8333,234.5 69.1667,232.5 69.5,230.5 Z"/></g>
<g><path style="opacity:1" fill="#e9e9ef" d="M 150.5,231.5 C 152.124,233.151 153.457,235.151 154.5,237.5C 156.432,236.48 158.432,236.313 160.5,237C 158.649,238.684 156.982,240.517 155.5,242.5C 157.109,247.347 155.942,248.347 152,245.5C 149.918,246.461 148.085,247.794 146.5,249.5C 145.897,247.548 146.23,245.548 147.5,243.5C 146.055,241.937 144.389,240.604 142.5,239.5C 144.743,238.526 147.076,238.192 149.5,238.5C 149.674,236.139 150.007,233.806 150.5,231.5 Z"/></g>
<g><path style="opacity:1" fill="#eeedf2" d="M 112.5,240.5 C 114.5,241.167 116.5,241.833 118.5,242.5C 114.053,244.182 113.386,246.849 116.5,250.5C 116.167,250.833 115.833,251.167 115.5,251.5C 114.126,250.289 112.626,249.289 111,248.5C 109.343,249.484 107.677,250.484 106,251.5C 106.155,249.189 106.155,246.856 106,244.5C 100.162,241.189 100.996,239.522 108.5,239.5C 110.676,232.859 112.01,233.192 112.5,240.5 Z"/></g>
<g><path style="opacity:1" fill="#ebeaf0" d="M 211.5,235.5 C 212.931,236.78 213.598,238.447 213.5,240.5C 216.011,240.162 218.345,240.162 220.5,240.5C 215.423,242.724 214.423,246.057 217.5,250.5C 217.167,250.833 216.833,251.167 216.5,251.5C 212.411,248.363 209.411,249.196 207.5,254C 206.833,254.667 206.167,254.667 205.5,254C 209.01,249.37 208.01,246.37 202.5,245C 204.898,243.982 207.231,242.815 209.5,241.5C 210.172,239.47 210.838,237.47 211.5,235.5 Z"/></g>
<g><path style="opacity:1" fill="#fefcfd" d="M 501.5,265.5 C 501.826,273.684 501.492,281.684 500.5,289.5C 452.098,264.524 401.098,257.691 347.5,269C 335.433,271.35 323.433,274.017 311.5,277C 270.897,288.868 230.23,300.534 189.5,312C 162.533,318.439 135.2,321.939 107.5,322.5C 72.5598,322.265 39.8931,313.599 9.5,296.5C 9.5,288.167 9.5,279.833 9.5,271.5C 49.417,293.544 92.0836,301.711 137.5,296C 177.846,290.246 217.18,280.746 255.5,267.5C 280.643,259.952 305.976,253.119 331.5,247C 353.226,242.034 375.226,239.201 397.5,238.5C 434.759,237.923 469.426,246.923 501.5,265.5 Z"/></g>
<g><path style="opacity:1" fill="#9f9eba" d="M 112.5,240.5 C 115.187,240.336 117.854,240.503 120.5,241C 119.956,241.717 119.289,242.217 118.5,242.5C 116.5,241.833 114.5,241.167 112.5,240.5 Z"/></g>
<g><path style="opacity:1" fill="#ededf2" d="M 48.5,243.5 C 50.5358,245.206 51.5358,247.539 51.5,250.5C 53.854,250.838 56.1873,251.338 58.5,252C 56.6191,253.102 54.9525,254.435 53.5,256C 54.451,258.158 54.951,260.325 55,262.5C 53,260.5 51,258.5 49,256.5C 47.1684,257.858 45.3351,258.192 43.5,257.5C 44.9294,255.669 45.4294,253.669 45,251.5C 38.9057,246.105 39.739,245.105 47.5,248.5C 47.6287,246.784 47.962,245.117 48.5,243.5 Z"/></g>
<g><path style="opacity:1" fill="#efeef3" d="M 170.5,245.5 C 171.947,246.622 172.947,248.122 173.5,250C 179.86,249.576 180.693,251.076 176,254.5C 175.845,256.856 175.845,259.189 176,261.5C 171.997,258.499 168.664,259.165 166,263.5C 165.952,261.456 166.452,259.456 167.5,257.5C 160.838,254.27 161.338,252.27 169,251.5C 169.505,249.482 170.005,247.482 170.5,245.5 Z"/></g>
<g><path style="opacity:1" fill="#f1f0f5" d="M 231.5,247.5 C 232.947,248.622 233.947,250.122 234.5,252C 240.704,250.521 241.537,251.688 237,255.5C 237.053,257.936 236.887,260.269 236.5,262.5C 235.167,261.833 233.833,261.167 232.5,260.5C 230.517,261.982 228.684,263.649 227,265.5C 226.952,263.456 227.452,261.456 228.5,259.5C 226.713,258.684 225.046,257.684 223.5,256.5C 225.632,255.402 227.798,254.402 230,253.5C 230.505,251.482 231.005,249.482 231.5,247.5 Z"/></g>
<g><path style="opacity:1" fill="#e7e7ee" d="M 89.5,251.5 C 91.0108,252.958 92.0108,254.791 92.5,257C 100.077,256.558 100.91,258.058 95,261.5C 94.8446,263.856 94.8446,266.189 95,268.5C 93.3333,267.167 91.6667,265.833 90,264.5C 88.414,265.376 86.914,266.376 85.5,267.5C 85.1133,265.269 84.9466,262.936 85,260.5C 80.3066,257.076 81.1399,255.576 87.5,256C 88.2666,254.53 88.9332,253.03 89.5,251.5 Z"/></g>
<g><path style="opacity:1" fill="#ecebf1" d="M 129.5,251.5 C 131.614,252.784 132.614,254.784 132.5,257.5C 134.527,257.338 136.527,257.505 138.5,258C 136.981,259.351 135.648,260.851 134.5,262.5C 135.548,264.456 136.048,266.456 136,268.5C 132.582,264.633 129.249,264.633 126,268.5C 125.845,266.144 125.845,263.811 126,261.5C 120.31,258.362 121.144,257.028 128.5,257.5C 128.833,255.5 129.167,253.5 129.5,251.5 Z"/></g>
<g><path style="opacity:1" fill="#ededf2" d="M 28.5,252.5 C 29.9422,254.54 30.9422,256.873 31.5,259.5C 33.5543,261.194 35.8877,262.361 38.5,263C 36.9751,264.009 35.3084,264.509 33.5,264.5C 33.8511,266.869 34.0178,269.203 34,271.5C 32.3163,269.649 30.4829,267.982 28.5,266.5C 23.0752,268.108 22.0752,266.608 25.5,262C 23.5951,260.185 21.9284,258.185 20.5,256C 22.7567,256.437 25.09,256.937 27.5,257.5C 27.6287,255.784 27.962,254.117 28.5,252.5 Z"/></g>
<g><path style="opacity:1" fill="#e9e8ef" d="M 190.5,258.5 C 192,260.232 193.667,261.899 195.5,263.5C 197.155,262.772 198.821,262.605 200.5,263C 198.649,264.684 196.982,266.517 195.5,268.5C 196.77,270.548 197.103,272.548 196.5,274.5C 194.809,272.744 192.809,272.244 190.5,273C 185.303,279.291 184.303,278.625 187.5,271C 186.048,269.435 184.381,268.102 182.5,267C 184.677,265.798 187.011,265.298 189.5,265.5C 189.674,263.139 190.007,260.806 190.5,258.5 Z"/></g>
<g><path style="opacity:1" fill="#b02c3e" d="M 500.5,289.5 C 501.771,293.748 502.437,298.248 502.5,303C 502.499,307.347 502.166,311.514 501.5,315.5C 459.836,293.268 415.502,285.102 368.5,291C 356.808,292.839 345.142,294.839 333.5,297C 283.014,310.538 232.68,324.538 182.5,339C 144.828,348.22 106.828,349.886 68.5,344C 48.0447,339.684 28.7114,332.517 10.5,322.5C 9.22923,318.252 8.56256,313.752 8.5,309C 8.50101,304.653 8.83434,300.486 9.5,296.5C 39.8931,313.599 72.5598,322.265 107.5,322.5C 135.2,321.939 162.533,318.439 189.5,312C 230.23,300.534 270.897,288.868 311.5,277C 323.433,274.017 335.433,271.35 347.5,269C 401.098,257.691 452.098,264.524 500.5,289.5 Z"/></g>
<g><path style="opacity:1" fill="#f1f1f5" d="M 69.5,265.5 C 70.9238,267.515 71.5905,269.848 71.5,272.5C 73.854,272.838 76.1873,273.338 78.5,274C 76.6951,274.972 75.0284,276.139 73.5,277.5C 74.77,279.548 75.1033,281.548 74.5,283.5C 71.9384,279.358 68.7717,278.692 65,281.5C 64.4242,279.623 64.5909,277.789 65.5,276C 64.5606,274.056 63.2273,272.389 61.5,271C 63.5868,271.218 65.5868,271.051 67.5,270.5C 68.1744,268.805 68.8411,267.138 69.5,265.5 Z"/></g>
<g><path style="opacity:1" fill="#ededf2" d="M 150.5,266.5 C 151.931,267.78 152.598,269.447 152.5,271.5C 154.857,271.337 157.19,271.503 159.5,272C 157.833,273.667 156.167,275.333 154.5,277C 157.418,283.077 156.251,283.911 151,279.5C 145.56,286.42 144.06,286.086 146.5,278.5C 145.293,276.551 143.627,275.051 141.5,274C 147.309,274.682 150.309,272.182 150.5,266.5 Z"/></g>
<g><path style="opacity:1" fill="#ededf2" d="M 109.5,269.5 C 111.043,270.736 112.043,272.402 112.5,274.5C 114.766,275.314 117.1,275.814 119.5,276C 114.242,278.105 113.242,281.439 116.5,286C 114.418,285.393 112.251,284.56 110,283.5C 104.544,287.88 103.377,286.88 106.5,280.5C 104.874,279.01 103.208,277.51 101.5,276C 103.81,275.503 106.143,275.337 108.5,275.5C 108.833,273.5 109.167,271.5 109.5,269.5 Z"/></g>
<g><path style="opacity:1" fill="#fefcfd" d="M 501.5,315.5 C 501.5,323.833 501.5,332.167 501.5,340.5C 458.164,317.455 412.164,309.621 363.5,317C 352.431,318.614 341.431,320.614 330.5,323C 281.389,336.259 232.389,349.926 183.5,364C 146.857,372.737 109.857,374.737 72.5,370C 50.5587,365.964 29.892,358.464 10.5,347.5C 10.5,346.833 10.1667,346.5 9.5,346.5C 9.17428,338.316 9.50761,330.316 10.5,322.5C 28.7114,332.517 48.0447,339.684 68.5,344C 106.828,349.886 144.828,348.22 182.5,339C 232.68,324.538 283.014,310.538 333.5,297C 345.142,294.839 356.808,292.839 368.5,291C 415.502,285.102 459.836,293.268 501.5,315.5 Z"/></g>
<g><path style="opacity:1" fill="#b12d3f" d="M 501.5,340.5 C 502.47,349.082 502.803,357.749 502.5,366.5C 462.972,344.686 420.639,336.186 375.5,341C 360.688,342.469 346.022,344.802 331.5,348C 282.407,361.252 233.407,374.919 184.5,389C 160.475,394.545 136.142,397.711 111.5,398.5C 75.1107,398.903 41.1107,390.236 9.5,372.5C 9.5,372.167 9.5,371.833 9.5,371.5C 9.17428,363.316 9.50761,355.316 10.5,347.5C 29.892,358.464 50.5587,365.964 72.5,370C 109.857,374.737 146.857,372.737 183.5,364C 232.389,349.926 281.389,336.259 330.5,323C 341.431,320.614 352.431,318.614 363.5,317C 412.164,309.621 458.164,317.455 501.5,340.5 Z"/></g>
<g><path style="opacity:1" fill="#fefcfc" d="M 502.5,366.5 C 502.5,374.833 502.5,383.167 502.5,391.5C 457.889,367.836 410.556,360.003 360.5,368C 348.422,369.949 336.422,372.282 324.5,375C 282.326,386.377 240.326,398.377 198.5,411C 169.183,418.931 139.35,423.097 109,423.5C 73.4537,423.822 40.287,415.155 9.5,397.5C 9.5,389.167 9.5,380.833 9.5,372.5C 41.1107,390.236 75.1107,398.903 111.5,398.5C 136.142,397.711 160.475,394.545 184.5,389C 233.407,374.919 282.407,361.252 331.5,348C 346.022,344.802 360.688,342.469 375.5,341C 420.639,336.186 462.972,344.686 502.5,366.5 Z"/></g>
<g><path style="opacity:1" fill="#ba5b69" d="M 9.5,346.5 C 10.1667,346.5 10.5,346.833 10.5,347.5C 9.50761,355.316 9.17428,363.316 9.5,371.5C 8.16667,363.167 8.16667,354.833 9.5,346.5 Z"/></g>
<g><path style="opacity:1" fill="#b02c3e" d="M 502.5,391.5 C 502.666,400.173 502.5,408.84 502,417.5C 456.629,392.966 408.463,385.133 357.5,394C 347.19,396.092 336.857,398.092 326.5,400C 277.488,413.671 228.488,427.338 179.5,441C 148.165,448.038 116.498,450.371 84.5,448C 57.894,444.533 32.894,436.199 9.5,423C 8.17214,414.402 8.17214,405.902 9.5,397.5C 40.287,415.155 73.4537,423.822 109,423.5C 139.35,423.097 169.183,418.931 198.5,411C 240.326,398.377 282.326,386.377 324.5,375C 336.422,372.282 348.422,369.949 360.5,368C 410.556,360.003 457.889,367.836 502.5,391.5 Z"/></g>
</svg>
