<?xml version="1.0" encoding="UTF-8"?>
<!DOCTYPE svg PUBLIC "-//W3C//DTD SVG 1.1//EN" "http://www.w3.org/Graphics/SVG/1.1/DTD/svg11.dtd">
<svg xmlns="http://www.w3.org/2000/svg" version="1.1" width="162px" height="163px" style="shape-rendering:geometricPrecision; text-rendering:geometricPrecision; image-rendering:optimizeQuality; fill-rule:evenodd; clip-rule:evenodd" xmlns:xlink="http://www.w3.org/1999/xlink">
<g><path style="opacity:1" fill="#f6f5f5" d="M -0.5,-0.5 C 53.5,-0.5 107.5,-0.5 161.5,-0.5C 161.5,53.8333 161.5,108.167 161.5,162.5C 107.5,162.5 53.5,162.5 -0.5,162.5C -0.5,108.167 -0.5,53.8333 -0.5,-0.5 Z"/></g>
<g><path style="opacity:1" fill="#020202" d="M 67.5,1.5 C 108.201,-1.5774 137.368,15.0893 155,51.5C 167.284,89.8679 157.784,121.701 126.5,147C 102.943,161.548 77.9429,164.548 51.5,156C 14.9765,138.8 -1.85687,109.967 1,69.5C 8.923,32.7451 31.0897,10.0784 67.5,1.5 Z"/></g>
<g><path style="opacity:1" fill="#fbfbfb" d="M 98.5,46.5 C 105.095,47.1983 111.262,49.1983 117,52.5C 120.655,51.9487 123.989,50.6154 127,48.5C 126.151,52.0675 124.317,55.2342 121.5,58C 124.167,57.6667 126.833,57.3333 129.5,57C 127.333,60.5 124.5,63.3333 121,65.5C 117.998,105.506 96.4976,124.672 56.5,123C 49.3437,121.505 42.6771,118.838 36.5,115C 46.7573,115.437 56.0907,112.77 64.5,107C 56.6396,105.744 50.9729,101.577 47.5,94.5C 49.7662,93.6858 52.0995,93.1858 54.5,93C 45.4306,89.819 41.0973,83.6523 41.5,74.5C 43.6316,76.1174 45.9649,76.6174 48.5,76C 40.3042,68.8947 38.4709,60.3947 43,50.5C 53.134,63.1292 66.3007,69.7958 82.5,70.5C 81.1118,57.9071 86.4451,49.9071 98.5,46.5 Z"/></g>
</svg>
