<?xml version="1.0" encoding="UTF-8"?>
<!DOCTYPE svg PUBLIC "-//W3C//DTD SVG 1.1//EN" "http://www.w3.org/Graphics/SVG/1.1/DTD/svg11.dtd">
<svg xmlns="http://www.w3.org/2000/svg" version="1.1" width="47px" height="70px" style="shape-rendering:geometricPrecision; text-rendering:geometricPrecision; image-rendering:optimizeQuality; fill-rule:evenodd; clip-rule:evenodd" xmlns:xlink="http://www.w3.org/1999/xlink">
<g><path style="opacity:1" fill="#fafcff" d="M -0.5,-0.5 C 15.1667,-0.5 30.8333,-0.5 46.5,-0.5C 46.5,22.8333 46.5,46.1667 46.5,69.5C 30.8333,69.5 15.1667,69.5 -0.5,69.5C -0.5,46.1667 -0.5,22.8333 -0.5,-0.5 Z"/></g>
<g><path style="opacity:1" fill="#067cff" d="M 8.5,1.5 C 9.87344,1.34332 11.2068,1.50999 12.5,2C 23.3749,12.7076 34.0415,23.5409 44.5,34.5C 34.1999,46.6338 23.0332,57.9672 11,68.5C 7.71429,66.2178 4.71429,63.5511 2,60.5C 1.33333,59.5 1.33333,58.5 2,57.5C 9.5,50 17,42.5 24.5,35C 17,27.5 9.5,20 2,12.5C 1.33333,11.1667 1.33333,9.83333 2,8.5C 4.37219,6.29681 6.53886,3.96348 8.5,1.5 Z"/></g>
</svg>
