<?xml version="1.0" encoding="UTF-8"?>
<!DOCTYPE svg PUBLIC "-//W3C//DTD SVG 1.1//EN" "http://www.w3.org/Graphics/SVG/1.1/DTD/svg11.dtd">
<svg xmlns="http://www.w3.org/2000/svg" version="1.1" width="512px" height="512px" style="shape-rendering:geometricPrecision; text-rendering:geometricPrecision; image-rendering:optimizeQuality; fill-rule:evenodd; clip-rule:evenodd" xmlns:xlink="http://www.w3.org/1999/xlink">
<g><path style="opacity:0.922" fill="#c9c6c8" d="M 379.5,57.5 C 424.501,53.6985 466.501,63.0318 505.5,85.5C 506.833,198.5 506.833,311.5 505.5,424.5C 461.447,398.767 414.114,389.933 363.5,398C 352.431,399.614 341.431,401.614 330.5,404C 282.411,417.022 234.411,430.355 186.5,444C 146.168,454.525 105.502,456.191 64.5,449C 43.6002,444.201 23.9335,436.368 5.5,425.5C 4.16667,312.5 4.16667,199.5 5.5,86.5C 49.5531,112.233 96.8864,121.067 147.5,113C 158.569,111.386 169.569,109.386 180.5,107C 228.584,93.979 276.584,80.6457 324.5,67C 342.79,62.7303 361.123,59.5637 379.5,57.5 Z"/></g>
<g><path style="opacity:1" fill="#2f317f" d="M 442.5,66.5 C 417.477,78.3723 394.143,92.8723 372.5,110C 345.416,132.225 319.083,155.392 293.5,179.5C 292.5,146.507 292.167,113.507 292.5,80.5C 322.073,71.3436 352.406,65.177 383.5,62C 403.526,60.7841 423.193,62.2841 442.5,66.5 Z"/></g>
<g><path style="opacity:1" fill="#fdfcfd" d="M 442.5,66.5 C 451.508,68.1127 460.341,70.446 469,73.5C 470.03,73.8361 470.53,74.5028 470.5,75.5C 443.581,84.2929 418.581,96.7929 395.5,113C 360.076,139.078 326.409,167.411 294.5,198C 304.118,195.846 313.785,193.513 323.5,191C 355.728,160.43 391.062,134.097 429.5,112C 450.778,100.188 473.445,92.6884 497.5,89.5C 498.833,89.5 500.167,89.5 501.5,89.5C 501.814,102.579 501.48,115.579 500.5,128.5C 472.222,131.982 445.889,141.149 421.5,156C 408.563,163.94 395.896,172.274 383.5,181C 425.044,178.473 464.044,186.973 500.5,206.5C 500.5,207.167 500.833,207.5 501.5,207.5C 502.108,212.944 501.442,217.944 499.5,222.5C 456.633,200.541 411.299,193.041 363.5,200C 333.966,204.801 304.966,211.634 276.5,220.5C 276.5,175.167 276.5,129.833 276.5,84.5C 281.911,83.4807 287.244,82.1473 292.5,80.5C 292.167,113.507 292.5,146.507 293.5,179.5C 319.083,155.392 345.416,132.225 372.5,110C 394.143,92.8723 417.477,78.3723 442.5,66.5 Z"/></g>
<g><path style="opacity:1" fill="#d12835" d="M 497.5,89.5 C 473.445,92.6884 450.778,100.188 429.5,112C 391.062,134.097 355.728,160.43 323.5,191C 313.785,193.513 304.118,195.846 294.5,198C 326.409,167.411 360.076,139.078 395.5,113C 418.581,96.7929 443.581,84.2929 470.5,75.5C 471.15,75.1961 471.817,74.8627 472.5,74.5C 482.407,78.4531 492.074,82.9531 501.5,88C 499.942,88.21 498.609,88.71 497.5,89.5 Z"/></g>
<g><path style="opacity:1" fill="#d02633" d="M 274.5,85.5 C 275.167,130.5 275.833,175.5 276.5,220.5C 304.966,211.634 333.966,204.801 363.5,200C 411.299,193.041 456.633,200.541 499.5,222.5C 500.167,223.167 500.833,223.833 501.5,224.5C 501.83,243.341 501.497,262.007 500.5,280.5C 451.82,254.857 400.487,248.023 346.5,260C 322.668,264.778 299.335,270.945 276.5,278.5C 275.501,323.664 275.168,368.997 275.5,414.5C 262.464,417.955 249.464,421.622 236.5,425.5C 235.501,380.67 235.168,335.67 235.5,290.5C 234.209,290.263 233.209,290.596 232.5,291.5C 209.704,297.782 186.704,303.282 163.5,308C 109.457,320.263 58.1237,313.43 9.5,287.5C 9.5,287.167 9.5,286.833 9.5,286.5C 9.16976,267.659 9.5031,248.993 10.5,230.5C 49.4795,251.929 91.1462,260.096 135.5,255C 169.045,250.204 202.045,243.037 234.5,233.5C 235.499,188.003 235.832,142.336 235.5,96.5C 248.455,92.6778 261.455,89.0111 274.5,85.5 Z"/></g>
<g><path style="opacity:1" fill="#c3899d" d="M 274.5,85.5 C 274.842,84.6618 275.508,84.3284 276.5,84.5C 276.5,129.833 276.5,175.167 276.5,220.5C 275.833,175.5 275.167,130.5 274.5,85.5 Z"/></g>
<g><path style="opacity:1" fill="#d35765" d="M 10.5,95.5 C 9.51045,101.31 9.17711,107.31 9.5,113.5C 8.34602,107.013 8.17935,100.346 9,93.5C 9.71719,94.0442 10.2172,94.7109 10.5,95.5 Z"/></g>
<g><path style="opacity:1" fill="#d12936" d="M 10.5,95.5 C 10.8333,96.5 11.5,97.1667 12.5,97.5C 59.2536,156.062 117.254,199.895 186.5,229C 176.374,232.227 166.04,233.894 155.5,234C 98.7379,204.934 50.4045,165.434 10.5,115.5C 10.1667,114.833 9.83333,114.167 9.5,113.5C 9.17711,107.31 9.51045,101.31 10.5,95.5 Z"/></g>
<g><path style="opacity:1" fill="#fdfcfd" d="M 69.5,117.5 C 113.821,154.507 163.487,182.507 218.5,201.5C 218.5,168.5 218.5,135.5 218.5,102.5C 223.691,100.936 228.858,99.2696 234,97.5C 234.5,142.832 234.667,188.165 234.5,233.5C 202.045,243.037 169.045,250.204 135.5,255C 91.1462,260.096 49.4795,251.929 10.5,230.5C 10.5,229.833 10.1667,229.5 9.5,229.5C 9.5,224.167 9.5,218.833 9.5,213.5C 42.7572,231.821 78.4238,240.487 116.5,239.5C 120.514,239.666 124.514,239.499 128.5,239C 127.956,238.283 127.289,237.783 126.5,237.5C 81.996,210.341 43.3293,176.341 10.5,135.5C 10.1667,134.833 9.83333,134.167 9.5,133.5C 9.17711,127.31 9.51045,121.31 10.5,115.5C 50.4045,165.434 98.7379,204.934 155.5,234C 166.04,233.894 176.374,232.227 186.5,229C 117.254,199.895 59.2536,156.062 12.5,97.5C 12.56,96.9569 12.8933,96.6236 13.5,96.5C 31.3143,105.881 49.981,112.881 69.5,117.5 Z"/></g>
<g><path style="opacity:1" fill="#2e307f" d="M 218.5,102.5 C 218.5,135.5 218.5,168.5 218.5,201.5C 163.487,182.507 113.821,154.507 69.5,117.5C 69.56,116.957 69.8933,116.624 70.5,116.5C 95.3869,121.2 120.387,121.7 145.5,118C 170.106,113.961 194.439,108.794 218.5,102.5 Z"/></g>
<g><path style="opacity:1" fill="#2f317f" d="M 500.5,128.5 C 500.833,128.5 501.167,128.5 501.5,128.5C 501.831,154.672 501.498,180.672 500.5,206.5C 464.044,186.973 425.044,178.473 383.5,181C 395.896,172.274 408.563,163.94 421.5,156C 445.889,141.149 472.222,131.982 500.5,128.5 Z"/></g>
<g><path style="opacity:1" fill="#525290" d="M 501.5,128.5 C 502.833,154.833 502.833,181.167 501.5,207.5C 500.833,207.5 500.5,207.167 500.5,206.5C 501.498,180.672 501.831,154.672 501.5,128.5 Z"/></g>
<g><path style="opacity:1" fill="#575992" d="M 9.5,133.5 C 9.83333,134.167 10.1667,134.833 10.5,135.5C 9.50223,160.995 9.16889,186.661 9.5,212.5C 8.16667,186.167 8.16667,159.833 9.5,133.5 Z"/></g>
<g><path style="opacity:1" fill="#2f317f" d="M 10.5,135.5 C 43.3293,176.341 81.996,210.341 126.5,237.5C 123.167,238.167 119.833,238.833 116.5,239.5C 78.4238,240.487 42.7572,231.821 9.5,213.5C 9.5,213.167 9.5,212.833 9.5,212.5C 9.16889,186.661 9.50223,160.995 10.5,135.5 Z"/></g>
<g><path style="opacity:1" fill="#b43148" d="M 501.5,224.5 C 502.833,243.5 502.833,262.5 501.5,281.5C 500.833,281.5 500.5,281.167 500.5,280.5C 501.497,262.007 501.83,243.341 501.5,224.5 Z"/></g>
<g><path style="opacity:1" fill="#b2344c" d="M 9.5,229.5 C 10.1667,229.5 10.5,229.833 10.5,230.5C 9.5031,248.993 9.16976,267.659 9.5,286.5C 8.16667,267.5 8.16667,248.5 9.5,229.5 Z"/></g>
<g><path style="opacity:1" fill="#7c7cae" d="M 126.5,237.5 C 127.289,237.783 127.956,238.283 128.5,239C 124.514,239.499 120.514,239.666 116.5,239.5C 119.833,238.833 123.167,238.167 126.5,237.5 Z"/></g>
<g><path style="opacity:1" fill="#fdfcfd" d="M 500.5,280.5 C 500.5,281.167 500.833,281.5 501.5,281.5C 501.5,286.833 501.5,292.167 501.5,297.5C 473.219,281.846 442.886,273.512 410.5,272.5C 401.343,271.342 392.009,271.176 382.5,272C 383.044,272.717 383.711,273.217 384.5,273.5C 429.004,300.659 467.671,334.659 500.5,375.5C 500.833,376.167 501.167,376.833 501.5,377.5C 501.823,383.69 501.49,389.69 500.5,395.5C 460.595,345.566 412.262,306.066 355.5,277C 344.8,276.608 334.467,278.275 324.5,282C 394.183,311.183 452.516,355.35 499.5,414.5C 499.565,414.938 499.399,415.272 499,415.5C 480.828,405.499 461.661,398.166 441.5,393.5C 397.211,356.508 347.545,328.508 292.5,309.5C 292.5,342.5 292.5,375.5 292.5,408.5C 287.316,410.088 282.149,411.755 277,413.5C 276.5,368.501 276.333,323.501 276.5,278.5C 299.335,270.945 322.668,264.778 346.5,260C 400.487,248.023 451.82,254.857 500.5,280.5 Z"/></g>
<g><path style="opacity:1" fill="#575797" d="M 410.5,272.5 C 401.651,272.174 392.984,272.507 384.5,273.5C 383.711,273.217 383.044,272.717 382.5,272C 392.009,271.176 401.343,271.342 410.5,272.5 Z"/></g>
<g><path style="opacity:1" fill="#2f307f" d="M 384.5,273.5 C 392.984,272.507 401.651,272.174 410.5,272.5C 442.886,273.512 473.219,281.846 501.5,297.5C 501.5,297.833 501.5,298.167 501.5,298.5C 501.831,324.339 501.498,350.005 500.5,375.5C 467.671,334.659 429.004,300.659 384.5,273.5 Z"/></g>
<g><path style="opacity:1" fill="#d22936" d="M 500.5,395.5 C 500.783,396.289 501.283,396.956 502,397.5C 502.667,404.167 502.667,410.833 502,417.5C 501.148,416.429 500.315,415.429 499.5,414.5C 452.516,355.35 394.183,311.183 324.5,282C 334.467,278.275 344.8,276.608 355.5,277C 412.262,306.066 460.595,345.566 500.5,395.5 Z"/></g>
<g><path style="opacity:1" fill="#fdfcfd" d="M 9.5,287.5 C 58.1237,313.43 109.457,320.263 163.5,308C 186.704,303.282 209.704,297.782 232.5,291.5C 234.495,336.154 235.162,381.154 234.5,426.5C 229.112,427.629 223.779,428.963 218.5,430.5C 218.667,397.498 218.5,364.498 218,331.5C 193.723,354.783 168.557,376.95 142.5,398C 119.631,416.273 94.964,431.773 68.5,444.5C 58.9309,442.941 49.5975,440.441 40.5,437C 41.056,436.617 41.3893,436.117 41.5,435.5C 69.1326,426.018 94.7993,412.851 118.5,396C 152.651,370.233 185.318,342.566 216.5,313C 206.868,315.064 197.201,317.397 187.5,320C 155.662,349.847 120.995,375.847 83.5,398C 61.0041,410.554 37.0041,418.388 11.5,421.5C 9.51967,409.211 8.85301,396.544 9.5,383.5C 10.791,383.737 11.791,383.404 12.5,382.5C 45.8951,377.093 76.5618,364.926 104.5,346C 112.341,340.913 120.008,335.58 127.5,330C 85.9138,333.018 46.9138,324.518 10.5,304.5C 10.5,303.833 10.1667,303.5 9.5,303.5C 9.5,298.167 9.5,292.833 9.5,287.5 Z"/></g>
<g><path style="opacity:1" fill="#525290" d="M 501.5,298.5 C 502.833,324.833 502.833,351.167 501.5,377.5C 501.167,376.833 500.833,376.167 500.5,375.5C 501.498,350.005 501.831,324.339 501.5,298.5 Z"/></g>
<g><path style="opacity:1" fill="#575992" d="M 9.5,303.5 C 10.1667,303.5 10.5,303.833 10.5,304.5C 9.5022,330.328 9.16887,356.328 9.5,382.5C 8.16667,356.167 8.16667,329.833 9.5,303.5 Z"/></g>
<g><path style="opacity:1" fill="#2f317f" d="M 10.5,304.5 C 46.9138,324.518 85.9138,333.018 127.5,330C 120.008,335.58 112.341,340.913 104.5,346C 76.5618,364.926 45.8951,377.093 12.5,382.5C 11.5,382.5 10.5,382.5 9.5,382.5C 9.16887,356.328 9.5022,330.328 10.5,304.5 Z"/></g>
<g><path style="opacity:1" fill="#2e307f" d="M 441.5,393.5 C 441.083,394.124 440.416,394.457 439.5,394.5C 404.624,388.484 369.958,389.65 335.5,398C 321.118,401.346 306.785,404.846 292.5,408.5C 292.5,375.5 292.5,342.5 292.5,309.5C 347.545,328.508 397.211,356.508 441.5,393.5 Z"/></g>
<g><path style="opacity:1" fill="#d12936" d="M 41.5,435.5 C 40.3052,435.678 39.1385,436.011 38,436.5C 28.2568,432.377 18.7568,427.877 9.5,423C 10.4158,422.722 11.0825,422.222 11.5,421.5C 37.0041,418.388 61.0041,410.554 83.5,398C 120.995,375.847 155.662,349.847 187.5,320C 197.201,317.397 206.868,315.064 216.5,313C 185.318,342.566 152.651,370.233 118.5,396C 94.7993,412.851 69.1326,426.018 41.5,435.5 Z"/></g>
<g><path style="opacity:1" fill="#c591a5" d="M 232.5,291.5 C 233.209,290.596 234.209,290.263 235.5,290.5C 235.168,335.67 235.501,380.67 236.5,425.5C 236.158,426.338 235.492,426.672 234.5,426.5C 235.162,381.154 234.495,336.154 232.5,291.5 Z"/></g>
<g><path style="opacity:1" fill="#2f307f" d="M 218.5,430.5 C 174.952,444.792 130.286,450.626 84.5,448C 78.8971,447.424 73.5638,446.257 68.5,444.5C 94.964,431.773 119.631,416.273 142.5,398C 168.557,376.95 193.723,354.783 218,331.5C 218.5,364.498 218.667,397.498 218.5,430.5 Z"/></g>
</svg>
