<svg xmlns:xlink="http://www.w3.org/1999/xlink" class="mr-1" width="18" height="19" viewBox="0 0 18 19" fill="none" xmlns="http://www.w3.org/2000/svg">
                                <g clip-path="url(#clip0_7803_4844)" fill="none">
                                    <path fill-rule="evenodd" clip-rule="evenodd" d="M4.45721 15.3589H13.3715C13.7801 15.3589 14.1144 15.6932 14.1144 16.1017C14.1144 16.5103 13.7801 16.8446 13.3715 16.8446H4.45721C4.04864 16.8446 3.71436 16.5103 3.71436 16.1017C3.71436 15.6932 4.04864 15.3589 4.45721 15.3589ZM8.91436 5.70173C8.09721 5.70173 7.42864 6.3703 7.42864 7.18744C7.42864 8.00458 8.09721 8.67316 8.91436 8.67316C9.30839 8.67316 9.68629 8.51663 9.96491 8.238C10.2435 7.95937 10.4001 7.58148 10.4001 7.18744C10.4001 6.79341 10.2435 6.41551 9.96491 6.13688C9.68629 5.85826 9.30839 5.70173 8.91436 5.70173ZM8.91436 1.98744C11.3435 1.98744 14.1144 3.81487 14.1144 7.29887C14.1144 9.51258 12.5321 11.8452 9.3675 14.2743C9.10007 14.4823 8.72864 14.4823 8.46121 14.2743C5.29664 11.8377 3.71436 9.51258 3.71436 7.29887C3.71436 3.81487 6.48521 1.98744 8.91436 1.98744Z" fill="black" fill-opacity="0.3"></path>
                                </g>
                                <defs>
                                    <clipPath id="clip0_7803_4844">
                                        <rect width="17.8286" height="17.8286" fill="white" transform="translate(0 0.501724)"></rect>
                                    </clipPath>
                                </defs>
                            </svg>