<?xml version="1.0" encoding="UTF-8"?>
<!DOCTYPE svg PUBLIC "-//W3C//DTD SVG 1.1//EN" "http://www.w3.org/Graphics/SVG/1.1/DTD/svg11.dtd">
<svg xmlns="http://www.w3.org/2000/svg" version="1.1" width="164px" height="164px" style="shape-rendering:geometricPrecision; text-rendering:geometricPrecision; image-rendering:optimizeQuality; fill-rule:evenodd; clip-rule:evenodd" xmlns:xlink="http://www.w3.org/1999/xlink">
<g><path style="opacity:1" fill="#f6f5f5" d="M -0.5,-0.5 C 54.1667,-0.5 108.833,-0.5 163.5,-0.5C 163.5,54.1667 163.5,108.833 163.5,163.5C 108.833,163.5 54.1667,163.5 -0.5,163.5C -0.5,108.833 -0.5,54.1667 -0.5,-0.5 Z"/></g>
<g><path style="opacity:1" fill="#020202" d="M 96.5,159.5 C 94.5131,141.53 93.8465,123.197 94.5,104.5C 100.5,104.5 106.5,104.5 112.5,104.5C 113.582,97.5113 114.582,90.5113 115.5,83.5C 116.404,82.791 116.737,81.791 116.5,80.5C 109.167,80.5 101.833,80.5 94.5,80.5C 94.5,74.5 94.5,68.5 94.5,62.5C 95.4654,58.5404 97.7987,55.8737 101.5,54.5C 106.833,54.5 112.167,54.5 117.5,54.5C 117.824,47.6457 117.491,40.979 116.5,34.5C 106.281,33.0916 95.9479,33.2582 85.5,35C 75.63,39.7098 70.2967,47.5431 69.5,58.5C 68.5084,65.6476 68.175,72.9809 68.5,80.5C 61.6457,80.176 54.979,80.5093 48.5,81.5C 48.5,89.1667 48.5,96.8333 48.5,104.5C 55.1667,104.5 61.8333,104.5 68.5,104.5C 69.1535,123.197 68.4869,141.53 66.5,159.5C 66.1667,159.5 65.8333,159.5 65.5,159.5C 60.7669,157.256 55.7669,155.589 50.5,154.5C 22.8944,142.034 6.72773,120.701 2,90.5C 0.315403,48.8589 18.8154,20.3589 57.5,5C 98.1153,-4.24552 129.615,8.58781 152,43.5C 168.51,80.6088 162.343,113.442 133.5,142C 122.39,150.556 110.057,156.39 96.5,159.5 Z"/></g>
<g><path style="opacity:1" fill="#fefefe" d="M 116.5,34.5 C 116.5,40.8333 116.5,47.1667 116.5,53.5C 111.305,53.1795 106.305,53.5128 101.5,54.5C 97.7987,55.8737 95.4654,58.5404 94.5,62.5C 93.5098,68.6446 93.1765,74.9779 93.5,81.5C 101.243,80.8701 108.576,81.5367 115.5,83.5C 114.582,90.5113 113.582,97.5113 112.5,104.5C 106.5,104.5 100.5,104.5 94.5,104.5C 93.5031,122.993 93.1698,141.659 93.5,160.5C 85.5,160.5 77.5,160.5 69.5,160.5C 69.8302,141.659 69.4969,122.993 68.5,104.5C 62.3554,103.51 56.0221,103.177 49.5,103.5C 49.5,96.1667 49.5,88.8333 49.5,81.5C 56.1667,81.5 62.8333,81.5 69.5,81.5C 69.5,73.8333 69.5,66.1667 69.5,58.5C 70.2967,47.5431 75.63,39.7098 85.5,35C 95.9479,33.2582 106.281,33.0916 116.5,34.5 Z"/></g>
<g><path style="opacity:1" fill="#767676" d="M 116.5,34.5 C 117.491,40.979 117.824,47.6457 117.5,54.5C 112.167,54.5 106.833,54.5 101.5,54.5C 106.305,53.5128 111.305,53.1795 116.5,53.5C 116.5,47.1667 116.5,40.8333 116.5,34.5 Z"/></g>
<g><path style="opacity:1" fill="#565656" d="M 69.5,58.5 C 69.5,66.1667 69.5,73.8333 69.5,81.5C 62.8333,81.5 56.1667,81.5 49.5,81.5C 49.1667,81.5 48.8333,81.5 48.5,81.5C 54.979,80.5093 61.6457,80.176 68.5,80.5C 68.175,72.9809 68.5084,65.6476 69.5,58.5 Z"/></g>
<g><path style="opacity:1" fill="#595959" d="M 94.5,62.5 C 94.5,68.5 94.5,74.5 94.5,80.5C 101.833,80.5 109.167,80.5 116.5,80.5C 116.737,81.791 116.404,82.791 115.5,83.5C 108.576,81.5367 101.243,80.8701 93.5,81.5C 93.1765,74.9779 93.5098,68.6446 94.5,62.5 Z"/></g>
<g><path style="opacity:1" fill="#c4c4c4" d="M 48.5,81.5 C 48.8333,81.5 49.1667,81.5 49.5,81.5C 49.5,88.8333 49.5,96.1667 49.5,103.5C 56.0221,103.177 62.3554,103.51 68.5,104.5C 61.8333,104.5 55.1667,104.5 48.5,104.5C 48.5,96.8333 48.5,89.1667 48.5,81.5 Z"/></g>
<g><path style="opacity:1" fill="#898989" d="M 68.5,104.5 C 69.4969,122.993 69.8302,141.659 69.5,160.5C 68.209,160.737 67.209,160.404 66.5,159.5C 68.4869,141.53 69.1535,123.197 68.5,104.5 Z"/></g>
<g><path style="opacity:1" fill="#8f8f8f" d="M 94.5,104.5 C 93.8465,123.197 94.5131,141.53 96.5,159.5C 95.791,160.404 94.791,160.737 93.5,160.5C 93.1698,141.659 93.5031,122.993 94.5,104.5 Z"/></g>
<g><path style="opacity:1" fill="#404040" d="M 50.5,154.5 C 55.7669,155.589 60.7669,157.256 65.5,159.5C 60.085,158.806 55.085,157.14 50.5,154.5 Z"/></g>
</svg>
