<svg xmlns:xlink="http://www.w3.org/1999/xlink" xmlns="http://www.w3.org/2000/svg" width="32" height="33" viewBox="0 0 32 33" fill="none"><g clip-path="url(#clip0_7803_4913)"><path d="M16 32.75C24.8366 32.75 32 25.5866 32 16.75C32 7.91344 24.8366 0.75 16 0.75C7.16344 0.75 0 7.91344 0 16.75C0 25.5866 7.16344 32.75 16 32.75Z" fill="black"/><path d="M13.072 25.1886C20.168 25.1886 24.048 19.3086 24.048 14.2126C24.048 14.0446 24.048 13.8766 24.04 13.7166C24.792 13.1726 25.448 12.4926 25.968 11.7166C25.28 12.0206 24.536 12.2286 23.752 12.3246C24.552 11.8446 25.16 11.0926 25.448 10.1886C24.704 10.6286 23.88 10.9486 23 11.1246C22.296 10.3726 21.296 9.90864 20.184 9.90864C18.056 9.90864 16.328 11.6366 16.328 13.7646C16.328 14.0686 16.36 14.3646 16.432 14.6446C13.224 14.4846 10.384 12.9486 8.48003 10.6126C8.15203 11.1806 7.96003 11.8446 7.96003 12.5486C7.96003 13.8846 8.64003 15.0686 9.68003 15.7566C9.04803 15.7406 8.45603 15.5646 7.93603 15.2766C7.93603 15.2926 7.93603 15.3086 7.93603 15.3246C7.93603 17.1966 9.26403 18.7486 11.032 19.1086C10.712 19.1966 10.368 19.2446 10.016 19.2446C9.76803 19.2446 9.52803 19.2206 9.28803 19.1726C9.77603 20.7086 11.2 21.8206 12.888 21.8526C11.568 22.8846 9.90403 23.5006 8.09603 23.5006C7.78403 23.5006 7.48003 23.4846 7.17603 23.4446C8.86403 24.5486 10.896 25.1886 13.072 25.1886Z" fill="white"/></g><defs><clipPath id="clip0_7803_4913"><rect width="32" height="32" fill="white" transform="translate(0 0.75)"/></clipPath></defs></svg>