<?xml version="1.0" encoding="UTF-8"?>
<!DOCTYPE svg PUBLIC "-//W3C//DTD SVG 1.1//EN" "http://www.w3.org/Graphics/SVG/1.1/DTD/svg11.dtd">
<svg xmlns="http://www.w3.org/2000/svg" version="1.1" width="162px" height="163px" style="shape-rendering:geometricPrecision; text-rendering:geometricPrecision; image-rendering:optimizeQuality; fill-rule:evenodd; clip-rule:evenodd" xmlns:xlink="http://www.w3.org/1999/xlink">
<g><path style="opacity:1" fill="#f6f5f5" d="M -0.5,-0.5 C 53.5,-0.5 107.5,-0.5 161.5,-0.5C 161.5,53.8333 161.5,108.167 161.5,162.5C 107.5,162.5 53.5,162.5 -0.5,162.5C -0.5,108.167 -0.5,53.8333 -0.5,-0.5 Z"/></g>
<g><path style="opacity:1" fill="#030303" d="M 67.5,1.5 C 108.201,-1.5774 137.368,15.0893 155,51.5C 166.633,87.5988 158.466,118.432 130.5,144C 97.1474,167.3 63.814,167.3 30.5,144C 2.53405,118.432 -5.63262,87.5988 6,51.5C 18.3103,24.6834 38.8103,8.01677 67.5,1.5 Z"/></g>
<g><path style="opacity:1" fill="#f9f9f9" d="M 116.5,128.5 C 91.141,128.796 65.8076,128.463 40.5,127.5C 36.6811,125.178 34.1811,121.845 33,117.5C 32.3333,92.8333 32.3333,68.1667 33,43.5C 34.7786,39.3882 37.6119,36.2215 41.5,34C 66.5,33.3333 91.5,33.3333 116.5,34C 121.84,35.4101 125.673,38.5768 128,43.5C 128.667,68.5 128.667,93.5 128,118.5C 125.845,123.825 122.011,127.159 116.5,128.5 Z"/></g>
<g><path style="opacity:1" fill="#0c0c0c" d="M 49.5,46.5 C 60.6211,46.1074 63.9544,50.9407 59.5,61C 54.8311,64.6238 50.6644,64.1238 47,59.5C 44.4582,54.4379 45.2915,50.1046 49.5,46.5 Z"/></g>
<g><path style="opacity:1" fill="#050505" d="M 93.5,68.5 C 99.5629,67.8377 105.23,69.0044 110.5,72C 112.377,74.2513 113.877,76.7513 115,79.5C 115.5,91.8288 115.667,104.162 115.5,116.5C 110.833,116.5 106.167,116.5 101.5,116.5C 101.903,105.769 101.403,95.1023 100,84.5C 96.6621,81.6819 92.8288,80.8485 88.5,82C 86.9588,83.5793 85.7922,85.4127 85,87.5C 84.5002,97.1609 84.3335,106.828 84.5,116.5C 79.8333,116.5 75.1667,116.5 70.5,116.5C 70.5,100.833 70.5,85.1667 70.5,69.5C 75.1667,69.5 79.8333,69.5 84.5,69.5C 84.3398,71.1992 84.5065,72.8659 85,74.5C 87.3218,71.6047 90.1552,69.6047 93.5,68.5 Z"/></g>
<g><path style="opacity:1" fill="#030303" d="M 46.5,69.5 C 51.1667,69.5 55.8333,69.5 60.5,69.5C 60.5,85.1667 60.5,100.833 60.5,116.5C 55.8333,116.5 51.1667,116.5 46.5,116.5C 46.5,100.833 46.5,85.1667 46.5,69.5 Z"/></g>
<g><path style="opacity:1" fill="#bcbcbc" d="M 40.5,127.5 C 65.8076,128.463 91.141,128.796 116.5,128.5C 92.3368,129.663 68.0035,129.83 43.5,129C 42.2625,128.768 41.2625,128.268 40.5,127.5 Z"/></g>
</svg>
