<?xml version="1.0" encoding="UTF-8"?>
<!DOCTYPE svg PUBLIC "-//W3C//DTD SVG 1.1//EN" "http://www.w3.org/Graphics/SVG/1.1/DTD/svg11.dtd">
<svg xmlns="http://www.w3.org/2000/svg" version="1.1" width="162px" height="164px" style="shape-rendering:geometricPrecision; text-rendering:geometricPrecision; image-rendering:optimizeQuality; fill-rule:evenodd; clip-rule:evenodd" xmlns:xlink="http://www.w3.org/1999/xlink">
<g><path style="opacity:1" fill="#f6f5f5" d="M -0.5,-0.5 C 53.5,-0.5 107.5,-0.5 161.5,-0.5C 161.5,54.1667 161.5,108.833 161.5,163.5C 107.5,163.5 53.5,163.5 -0.5,163.5C -0.5,108.833 -0.5,54.1667 -0.5,-0.5 Z"/></g>
<g><path style="opacity:1" fill="#020202" d="M 67.5,2.5 C 108.201,-0.577405 137.368,16.0893 155,52.5C 166.633,88.5988 158.466,119.432 130.5,145C 97.1474,168.3 63.814,168.3 30.5,145C 2.53405,119.432 -5.63262,88.5988 6,52.5C 18.3103,25.6834 38.8103,9.01677 67.5,2.5 Z"/></g>
<g><path style="opacity:1" fill="#fcfcfc" d="M 132.5,63.5 C 132.661,78.1827 132.328,92.8493 131.5,107.5C 130.203,113.464 126.536,117.13 120.5,118.5C 113.676,119.005 107.009,119.671 100.5,120.5C 81.1379,120.861 61.8046,120.361 42.5,119C 35.2326,118.382 30.8993,114.548 29.5,107.5C 28.0394,91.1436 28.2061,74.8103 30,58.5C 31.3961,55.9361 32.5627,53.2695 33.5,50.5C 38.051,47.8147 43.051,46.3147 48.5,46C 73.5569,44.91 98.5569,45.5767 123.5,48C 130.108,51.1006 133.108,56.2672 132.5,63.5 Z"/></g>
<g><path style="opacity:1" fill="#c5c5c5" d="M 33.5,50.5 C 32.5627,53.2695 31.3961,55.9361 30,58.5C 28.2061,74.8103 28.0394,91.1436 29.5,107.5C 28.6862,105.369 28.1862,103.036 28,100.5C 27.3333,88.1667 27.3333,75.8333 28,63.5C 28.0136,58.264 29.8469,53.9307 33.5,50.5 Z"/></g>
<g><path style="opacity:1" fill="#030303" d="M 69.5,67.5 C 78.4726,72.6549 87.4726,77.8215 96.5,83C 87.6168,88.0269 78.7835,93.1936 70,98.5C 69.5002,88.172 69.3335,77.8387 69.5,67.5 Z"/></g>
<g><path style="opacity:1" fill="#c2c2c2" d="M 132.5,63.5 C 133.166,69.4907 133.5,75.6574 133.5,82C 133.709,90.7247 133.042,99.2247 131.5,107.5C 132.328,92.8493 132.661,78.1827 132.5,63.5 Z"/></g>
<g><path style="opacity:1" fill="#3f3f3f" d="M 120.5,118.5 C 119.737,119.268 118.737,119.768 117.5,120C 111.843,120.499 106.176,120.666 100.5,120.5C 107.009,119.671 113.676,119.005 120.5,118.5 Z"/></g>
</svg>
