<svg xmlns:xlink="http://www.w3.org/1999/xlink" class="mr-1" width="18" height="19" viewBox="0 0 18 19" fill="none" xmlns="http://www.w3.org/2000/svg">
                                <g clip-path="url(#clip0_7803_4854)" fill="none">
                                    <path d="M14.2851 11.8377L12.3982 11.6223C11.9451 11.5703 11.4993 11.7263 11.1799 12.0457L9.81306 13.4126C7.71078 12.3429 5.98735 10.6269 4.91763 8.51716L6.29192 7.14287C6.61135 6.82345 6.76735 6.37773 6.71535 5.92459L6.49992 4.05259C6.41078 3.3023 5.77935 2.73773 5.02163 2.73773H3.73649C2.89706 2.73773 2.19878 3.43602 2.25078 4.27545C2.64449 10.6194 7.7182 15.6857 14.0548 16.0794C14.8942 16.1314 15.5925 15.4332 15.5925 14.5937V13.3086C15.5999 12.5583 15.0353 11.9269 14.2851 11.8377Z" fill="black" fill-opacity="0.3"></path>
                                </g>
                                <defs>
                                    <clipPath id="clip0_7803_4854">
                                        <rect width="17.8286" height="17.8286" fill="white" transform="translate(0 0.501724)"></rect>
                                    </clipPath>
                                </defs>
                            </svg>