<svg xmlns:xlink="http://www.w3.org/1999/xlink" class="mr-1" width="18" height="19" viewBox="0 0 18 19" fill="none" xmlns="http://www.w3.org/2000/svg">
                                <g clip-path="url(#clip0_7803_4849)" fill="none">
                                    <path d="M14.857 3.47316H2.97131C2.15417 3.47316 1.49302 4.14173 1.49302 4.95887L1.4856 13.8732C1.4856 14.6903 2.15417 15.3589 2.97131 15.3589H14.857C15.6742 15.3589 16.3427 14.6903 16.3427 13.8732V4.95887C16.3427 4.14173 15.6742 3.47316 14.857 3.47316ZM14.5599 6.6303L9.30788 9.91373C9.07017 10.0623 8.75817 10.0623 8.52045 9.91373L3.26845 6.6303C3.08274 6.51145 2.97131 6.31087 2.97131 6.09545C2.97131 5.59773 3.5136 5.30059 3.93702 5.56059L8.91417 8.67316L13.8913 5.56059C14.3147 5.30059 14.857 5.59773 14.857 6.09545C14.857 6.31087 14.7456 6.51145 14.5599 6.6303Z" fill="black" fill-opacity="0.3"></path>
                                </g>
                                <defs>
                                    <clipPath id="clip0_7803_4849">
                                        <rect width="17.8286" height="17.8286" fill="white" transform="translate(0 0.501724)"></rect>
                                    </clipPath>
                                </defs>
                            </svg>