<?xml version="1.0" encoding="UTF-8"?>
<!DOCTYPE svg PUBLIC "-//W3C//DTD SVG 1.1//EN" "http://www.w3.org/Graphics/SVG/1.1/DTD/svg11.dtd">
<svg xmlns="http://www.w3.org/2000/svg" version="1.1" width="69px" height="70px" style="shape-rendering:geometricPrecision; text-rendering:geometricPrecision; image-rendering:optimizeQuality; fill-rule:evenodd; clip-rule:evenodd" xmlns:xlink="http://www.w3.org/1999/xlink">
<g><path style="opacity:1" fill="#f8f7f7" d="M -0.5,-0.5 C 22.5,-0.5 45.5,-0.5 68.5,-0.5C 68.5,22.8333 68.5,46.1667 68.5,69.5C 45.5,69.5 22.5,69.5 -0.5,69.5C -0.5,46.1667 -0.5,22.8333 -0.5,-0.5 Z"/></g>
<g><path style="opacity:1" fill="#afaeae" d="M 4.5,1.5 C 20.6756,-1.14978 26.5089,5.51688 22,21.5C 19.6884,24.646 17.1884,27.646 14.5,30.5C 20.1667,40.8333 28.1667,48.8333 38.5,54.5C 41.6511,51.8496 44.6511,49.0162 47.5,46C 53.3378,45.2782 59.0045,45.9449 64.5,48C 66.9168,50.4794 67.9168,53.4794 67.5,57C 67.8876,60.6382 66.8876,63.8049 64.5,66.5C 41.0373,67.6844 22.8706,58.351 10,38.5C 5.13202,29.396 1.96536,19.7293 0.5,9.5C 0.782074,6.26911 2.11541,3.60244 4.5,1.5 Z"/></g>
</svg>
