<?xml version="1.0" encoding="UTF-8"?>
<!DOCTYPE svg PUBLIC "-//W3C//DTD SVG 1.1//EN" "http://www.w3.org/Graphics/SVG/1.1/DTD/svg11.dtd">
<svg xmlns="http://www.w3.org/2000/svg" version="1.1" width="77px" height="76px" style="shape-rendering:geometricPrecision; text-rendering:geometricPrecision; image-rendering:optimizeQuality; fill-rule:evenodd; clip-rule:evenodd" xmlns:xlink="http://www.w3.org/1999/xlink">
<g><path style="opacity:1" fill="#f7f6f6" d="M -0.5,-0.5 C 25.1667,-0.5 50.8333,-0.5 76.5,-0.5C 76.5,24.8333 76.5,50.1667 76.5,75.5C 50.8333,75.5 25.1667,75.5 -0.5,75.5C -0.5,50.1667 -0.5,24.8333 -0.5,-0.5 Z"/></g>
<g><path style="opacity:1" fill="#aeadad" d="M 2.5,54.5 C 1.50356,38.3419 1.17023,22.0085 1.5,5.5C 2.02298,3.29208 3.35631,1.79208 5.5,1C 21.1667,0.333333 36.8333,0.333333 52.5,1C 53.6667,2.16667 54.8333,3.33333 56,4.5C 56.6667,15.1667 56.6667,25.8333 56,36.5C 55.5348,37.9308 54.7014,39.0975 53.5,40C 40.9284,41.2952 28.2617,41.9619 15.5,42C 11.2978,46.3702 6.96447,50.5368 2.5,54.5 Z"/></g>
<g><path style="opacity:1" fill="#cecdcd" d="M 1.5,5.5 C 1.17023,22.0085 1.50356,38.3419 2.5,54.5C 2.44001,55.0431 2.10667,55.3764 1.5,55.5C 0.173101,38.6714 0.173101,22.0048 1.5,5.5 Z"/></g>
<g><path style="opacity:1" fill="#afaeae" d="M 16.5,54.5 C 16.5,52.8333 16.5,51.1667 16.5,49.5C 31.676,49.8294 46.676,49.4961 61.5,48.5C 62.4584,48.0472 63.2917,47.3805 64,46.5C 64.4998,36.172 64.6665,25.8387 64.5,15.5C 69.439,14.3519 72.939,16.0186 75,20.5C 75.6667,38.5 75.6667,56.5 75,74.5C 70.1667,69.6667 65.3333,64.8333 60.5,60C 46.8333,59.6667 33.1667,59.3333 19.5,59C 17.8588,57.871 16.8588,56.371 16.5,54.5 Z"/></g>
<g><path style="opacity:1" fill="#c0c0c0" d="M 61.5,48.5 C 46.676,49.4961 31.676,49.8294 16.5,49.5C 16.5,51.1667 16.5,52.8333 16.5,54.5C 15.5386,52.7354 15.2053,50.7354 15.5,48.5C 30.8333,48.5 46.1667,48.5 61.5,48.5 Z"/></g>
</svg>
