<?xml version="1.0" encoding="UTF-8"?>
<!DOCTYPE svg PUBLIC "-//W3C//DTD SVG 1.1//EN" "http://www.w3.org/Graphics/SVG/1.1/DTD/svg11.dtd">
<svg xmlns="http://www.w3.org/2000/svg" version="1.1" width="77px" height="62px" style="shape-rendering:geometricPrecision; text-rendering:geometricPrecision; image-rendering:optimizeQuality; fill-rule:evenodd; clip-rule:evenodd" xmlns:xlink="http://www.w3.org/1999/xlink">
<g><path style="opacity:1" fill="#f7f6f6" d="M -0.5,-0.5 C 25.1667,-0.5 50.8333,-0.5 76.5,-0.5C 76.5,20.1667 76.5,40.8333 76.5,61.5C 50.8333,61.5 25.1667,61.5 -0.5,61.5C -0.5,40.8333 -0.5,20.1667 -0.5,-0.5 Z"/></g>
<g><path style="opacity:1" fill="#afaeae" d="M 5.5,0.5 C 27.1692,0.333373 48.8359,0.500039 70.5,1C 72,2.5 73.5,4 75,5.5C 75.9709,22.5914 75.6375,39.5914 74,56.5C 72.786,58.0488 71.286,59.2155 69.5,60C 47.7446,60.9774 26.0779,60.6441 4.5,59C 2.95118,57.786 1.78451,56.286 1,54.5C 0.333333,38.5 0.333333,22.5 1,6.5C 2.33203,4.34004 3.83203,2.34004 5.5,0.5 Z"/></g>
<g><path style="opacity:1" fill="#f5f4f4" d="M 10.5,10.5 C 11.552,10.3505 12.552,10.5172 13.5,11C 21.4298,16.5478 29.5965,21.7145 38,26.5C 46.9001,21.2989 55.7334,15.9656 64.5,10.5C 66.2718,11.2697 67.2718,12.6031 67.5,14.5C 66.0021,16.8292 64.0021,18.6625 61.5,20C 53.7957,24.5158 46.129,29.0158 38.5,33.5C 29.2113,28.855 20.2113,23.6884 11.5,18C 8.03379,15.8064 7.70046,13.3064 10.5,10.5 Z"/></g>
</svg>
