<svg xmlns:xlink="http://www.w3.org/1999/xlink" class="mr-1" width="18" height="19" viewBox="0 0 18 19" fill="none" xmlns="http://www.w3.org/2000/svg">
                                <g clip-path="url(#clip0_7803_4859)" fill="none">
                                    <path d="M14.857 4.95887H14.1142V10.9017C14.1142 11.3103 13.7799 11.6446 13.3713 11.6446H4.45702V12.3874C4.45702 13.2046 5.1256 13.8732 5.94274 13.8732H13.3713L16.3427 16.8446V6.44458C16.3427 5.62744 15.6742 4.95887 14.857 4.95887ZM12.6285 8.67316V3.47316C12.6285 2.65601 11.9599 1.98744 11.1427 1.98744H2.97131C2.15417 1.98744 1.4856 2.65601 1.4856 3.47316V13.1303L4.45702 10.1589H11.1427C11.9599 10.1589 12.6285 9.4903 12.6285 8.67316Z" fill="black" fill-opacity="0.3"></path>
                                </g>
                                <defs>
                                    <clipPath id="clip0_7803_4859">
                                        <rect width="17.8286" height="17.8286" fill="white" transform="translate(0 0.501724)"></rect>
                                    </clipPath>
                                </defs>
                            </svg>