<?xml version="1.0" encoding="UTF-8"?>
<!DOCTYPE svg PUBLIC "-//W3C//DTD SVG 1.1//EN" "http://www.w3.org/Graphics/SVG/1.1/DTD/svg11.dtd">
<svg xmlns="http://www.w3.org/2000/svg" version="1.1" width="154px" height="128px" style="shape-rendering:geometricPrecision; text-rendering:geometricPrecision; image-rendering:optimizeQuality; fill-rule:evenodd; clip-rule:evenodd" xmlns:xlink="http://www.w3.org/1999/xlink">
<g><path style="opacity:1" fill="#fefefe" d="M -0.5,-0.5 C 18.1667,-0.5 36.8333,-0.5 55.5,-0.5C 27.1746,5.32196 9.34126,22.322 2,50.5C 1.03228,72.897 1.36561,95.2304 3,117.5C 5.10046,120.467 7.93379,122.3 11.5,123C 27.8333,123.667 44.1667,123.667 60.5,123C 65.2452,121.885 68.4119,119.052 70,114.5C 70.9602,96.1009 70.6269,77.7676 69,59.5C 66.5589,57.0314 63.7256,55.198 60.5,54C 53.1441,53.8313 45.8108,53.3313 38.5,52.5C 43.4694,41.9943 51.8027,35.8276 63.5,34C 66.473,32.2352 68.6396,29.7352 70,26.5C 70.6667,20.5 70.6667,14.5 70,8.5C 67.2866,3.26024 63.1199,0.260244 57.5,-0.5C 83.1667,-0.5 108.833,-0.5 134.5,-0.5C 114.935,3.20927 99.7679,13.5426 89,30.5C 85.8765,36.5366 83.5432,42.8699 82,49.5C 80.4471,70.1389 80.1138,90.8056 81,111.5C 83.5445,120.866 89.7112,124.866 99.5,123.5C 113.171,123.667 126.837,123.5 140.5,123C 143.88,121.629 146.713,119.462 149,116.5C 150.141,107.43 150.641,98.2629 150.5,89C 150.627,79.4295 150.127,69.9295 149,60.5C 146.713,57.5379 143.88,55.3712 140.5,54C 133.808,53.1691 127.142,53.3358 120.5,54.5C 121.128,56.2581 122.128,57.7581 123.5,59C 128.351,59.1745 133.018,59.6745 137.5,60.5C 127.833,60.5 118.167,60.5 108.5,60.5C 108.5,58.8333 108.5,57.1667 108.5,55.5C 112.339,38.8284 122.672,28.6617 139.5,25C 140.823,24.1841 141.489,23.0174 141.5,21.5C 142.321,18.3586 142.821,15.0252 143,11.5C 146.499,20.6878 144.665,28.5211 137.5,35C 143.564,34.6321 147.731,31.4654 150,25.5C 150.667,20.1667 150.667,14.8333 150,9.5C 147.565,3.21477 143.065,-0.118565 136.5,-0.5C 142.167,-0.5 147.833,-0.5 153.5,-0.5C 153.5,42.1667 153.5,84.8333 153.5,127.5C 102.167,127.5 50.8333,127.5 -0.5,127.5C -0.5,84.8333 -0.5,42.1667 -0.5,-0.5 Z"/></g>
<g><path style="opacity:1" fill="#ebebec" d="M 134.5,-0.5 C 135.167,-0.5 135.833,-0.5 136.5,-0.5C 143.065,-0.118565 147.565,3.21477 150,9.5C 150.667,14.8333 150.667,20.1667 150,25.5C 147.731,31.4654 143.564,34.6321 137.5,35C 144.665,28.5211 146.499,20.6878 143,11.5C 142.821,15.0252 142.321,18.3586 141.5,21.5C 141.666,17.4862 141.499,13.4862 141,9.5C 138.159,7.49629 134.993,6.99629 131.5,8C 115.48,12.4997 103.48,21.9997 95.5,36.5C 93.9256,36.9371 92.7589,37.9371 92,39.5C 88.9706,47.5879 86.9706,55.9212 86,64.5C 85.3333,79.8333 85.3333,95.1667 86,110.5C 87.8053,117.808 92.3053,122.142 99.5,123.5C 89.7112,124.866 83.5445,120.866 81,111.5C 80.1138,90.8056 80.4471,70.1389 82,49.5C 83.5432,42.8699 85.8765,36.5366 89,30.5C 99.7679,13.5426 114.935,3.20927 134.5,-0.5 Z"/></g>
<g><path style="opacity:1" fill="#2879f5" d="M 141.5,21.5 C 141.489,23.0174 140.823,24.1841 139.5,25C 122.672,28.6617 112.339,38.8284 108.5,55.5C 107.539,57.2646 107.205,59.2646 107.5,61.5C 117.5,61.5 127.5,61.5 137.5,61.5C 139.017,61.5106 140.184,62.1772 141,63.5C 141.667,79.5 141.667,95.5 141,111.5C 140.5,112 140,112.5 139.5,113C 123.5,113.667 107.5,113.667 91.5,113C 91,112.5 90.5,112 90,111.5C 89.3333,91.5 89.3333,71.5 90,51.5C 91.1499,46.2137 92.9833,41.2137 95.5,36.5C 103.48,21.9997 115.48,12.4997 131.5,8C 134.993,6.99629 138.159,7.49629 141,9.5C 141.499,13.4862 141.666,17.4862 141.5,21.5 Z"/></g>
<g><path style="opacity:1" fill="#f0f2f6" d="M 95.5,36.5 C 92.9833,41.2137 91.1499,46.2137 90,51.5C 89.3333,71.5 89.3333,91.5 90,111.5C 90.5,112 91,112.5 91.5,113C 107.5,113.667 123.5,113.667 139.5,113C 140,112.5 140.5,112 141,111.5C 141.667,95.5 141.667,79.5 141,63.5C 140.184,62.1772 139.017,61.5106 137.5,61.5C 137.5,61.1667 137.5,60.8333 137.5,60.5C 133.018,59.6745 128.351,59.1745 123.5,59C 122.128,57.7581 121.128,56.2581 120.5,54.5C 127.142,53.3358 133.808,53.1691 140.5,54C 143.88,55.3712 146.713,57.5379 149,60.5C 150.127,69.9295 150.627,79.4295 150.5,89C 150.641,98.2629 150.141,107.43 149,116.5C 146.713,119.462 143.88,121.629 140.5,123C 126.837,123.5 113.171,123.667 99.5,123.5C 92.3053,122.142 87.8053,117.808 86,110.5C 85.3333,95.1667 85.3333,79.8333 86,64.5C 86.9706,55.9212 88.9706,47.5879 92,39.5C 92.7589,37.9371 93.9256,36.9371 95.5,36.5 Z"/></g>
<g><path style="opacity:1" fill="#c2d8fc" d="M 108.5,55.5 C 108.5,57.1667 108.5,58.8333 108.5,60.5C 118.167,60.5 127.833,60.5 137.5,60.5C 137.5,60.8333 137.5,61.1667 137.5,61.5C 127.5,61.5 117.5,61.5 107.5,61.5C 107.205,59.2646 107.539,57.2646 108.5,55.5 Z"/></g>
<g><path style="opacity:1" fill="#eceef1" d="M 55.5,-0.5 C 56.1667,-0.5 56.8333,-0.5 57.5,-0.5C 63.1199,0.260244 67.2866,3.26024 70,8.5C 70.6667,14.5 70.6667,20.5 70,26.5C 68.6396,29.7352 66.473,32.2352 63.5,34C 51.8027,35.8276 43.4694,41.9943 38.5,52.5C 45.8108,53.3313 53.1441,53.8313 60.5,54C 63.7256,55.198 66.5589,57.0314 69,59.5C 70.6269,77.7676 70.9602,96.1009 70,114.5C 68.4119,119.052 65.2452,121.885 60.5,123C 44.1667,123.667 27.8333,123.667 11.5,123C 7.93379,122.3 5.10046,120.467 3,117.5C 1.36561,95.2304 1.03228,72.897 2,50.5C 9.34126,22.322 27.1746,5.32196 55.5,-0.5 Z"/></g>
<g><path style="opacity:1" fill="#2879f5" d="M 53.5,6.5 C 56.8621,6.06952 59.6954,7.06952 62,9.5C 62.6667,14.1667 62.6667,18.8333 62,23.5C 61.1667,24.3333 60.3333,25.1667 59.5,26C 40.8986,30.1001 30.5653,41.6001 28.5,60.5C 38.5056,60.3335 48.5056,60.5002 58.5,61C 59.9308,61.4652 61.0975,62.2986 62,63.5C 62.6667,79.5 62.6667,95.5 62,111.5C 61.1667,112.333 60.3333,113.167 59.5,114C 43.8333,114.667 28.1667,114.667 12.5,114C 11.6667,113.167 10.8333,112.333 10,111.5C 9.33333,91.1667 9.33333,70.8333 10,50.5C 16.2752,27.5525 30.7752,12.8859 53.5,6.5 Z"/></g>
</svg>
